<?xml version="1.0" encoding="UTF-8" standalone="no"?>
<!-- Created with Inkscape (http://www.inkscape.org/) -->

<svg
   xmlns:dc="http://purl.org/dc/elements/1.1/"
   xmlns:cc="http://creativecommons.org/ns#"
   xmlns:rdf="http://www.w3.org/1999/02/22-rdf-syntax-ns#"
   xmlns:svg="http://www.w3.org/2000/svg"
   xmlns="http://www.w3.org/2000/svg"
   xmlns:sodipodi="http://sodipodi.sourceforge.net/DTD/sodipodi-0.dtd"
   xmlns:inkscape="http://www.inkscape.org/namespaces/inkscape"
   width="712.14282"
   height="234.28572"
   id="svg2"
   version="1.1"
   inkscape:version="0.48.4 r9939"
   sodipodi:docname="regnum.svg">
  <defs
     id="defs4" />
  <sodipodi:namedview
     id="base"
     pagecolor="#ffffff"
     bordercolor="#666666"
     borderopacity="1.0"
     inkscape:pageopacity="0.0"
     inkscape:pageshadow="2"
     inkscape:zoom="1.4"
     inkscape:cx="594.90992"
     inkscape:cy="91.839405"
     inkscape:document-units="px"
     inkscape:current-layer="layer1"
     showgrid="false"
     fit-margin-top="0"
     fit-margin-left="0"
     fit-margin-right="0"
     fit-margin-bottom="0"
     inkscape:window-width="1855"
     inkscape:window-height="1056"
     inkscape:window-x="65"
     inkscape:window-y="24"
     inkscape:window-maximized="1" />
  <metadata
     id="metadata7">
    <rdf:RDF>
      <cc:Work
         rdf:about="">
        <dc:format>image/svg+xml</dc:format>
        <dc:type
           rdf:resource="http://purl.org/dc/dcmitype/StillImage" />
        <dc:title></dc:title>
      </cc:Work>
    </rdf:RDF>
  </metadata>
  <g
     inkscape:label="Layer 1"
     inkscape:groupmode="layer"
     id="layer1"
     transform="translate(-102.85714,-326.64789)">
    <rect
       style="fill:#000000;fill-opacity:1;fill-rule:nonzero;stroke:none"
       id="rect2985"
       width="712.14282"
       height="234.28572"
       x="102.85714"
       y="326.64789"
       inkscape:export-xdpi="1041.2"
       inkscape:export-ydpi="1041.2" />
    <flowRoot
       xml:space="preserve"
       id="flowRoot2987"
       style="font-size:40px;font-style:normal;font-weight:normal;line-height:125%;letter-spacing:0px;word-spacing:0px;fill:#ffffff;fill-opacity:1;stroke:none;font-family:Sans"
       transform="translate(-56.428571,-46.428571)"
       inkscape:export-filename="/home/rouben/Desktop/rect2985.png"
       inkscape:export-xdpi="1041.2"
       inkscape:export-ydpi="1041.2"><flowRegion
         id="flowRegion2989"><rect
           id="rect2991"
           width="821.42859"
           height="208.57143"
           x="167.85715"
           y="412.36218"
           style="fill:#ffffff" /></flowRegion><flowPara
         id="flowPara2993"
         style="font-size:144px;font-style:normal;font-variant:normal;font-weight:normal;font-stretch:normal;text-align:start;line-height:107.00000525%;writing-mode:lr-tb;text-anchor:start;font-family:Sans;-inkscape-font-specification:Sans">Regnum</flowPara></flowRoot>    <path
       id="path2997"
       class=""
       d="m 789.78414,448.64878 h -4.83911 c -0.45917,0 -0.81239,0.35321 -0.81239,0.8124 v 5.6515 h -6.46391 v -31.48949 c 0,-0.45918 -0.35322,-0.8124 -0.81242,-0.8124 h -4.83908 c -0.4592,0 -0.81242,0.35322 -0.81242,0.8124 v 5.65151 h -6.4639 v -5.65151 c 0,-0.45918 -0.35323,-0.8124 -0.8124,-0.8124 h -4.83912 c -0.45918,0 -0.8124,0.35322 -0.8124,0.8124 v 5.65151 h -6.46391 v -5.65151 c 0,-1.05966 -1.41287,-0.8124 -2.06632,-0.8124 v -6.71116 c 1.46585,-0.35322 3.02002,-0.60047 4.53885,-0.60047 1.92505,0 3.69115,0.75942 5.54555,0.75942 0.8124,0 4.89208,-0.19427 4.89208,-1.41287 v -10.59658 c 0,-0.4592 -0.35321,-0.81242 -0.8124,-0.81242 -0.90071,0 -2.66681,0.75942 -4.23863,0.75942 -1.71312,0 -3.69115,-0.75942 -5.75748,-0.75942 -1.41287,0 -2.82574,0.19427 -4.18564,0.51217 v -0.86538 c 0.95369,-0.45919 1.60715,-1.46586 1.60715,-2.52551 0,-3.65583 -5.54555,-3.67349 -5.54555,0 0,1.05965 0.65345,2.06632 1.60715,2.52551 v 19.72729 c -0.65346,0 -2.06633,-0.24726 -2.06633,0.8124 v 5.65151 h -6.4639 v -5.65151 c 0,-0.45918 -0.35323,-0.8124 -0.81243,-0.8124 h -4.83909 c -0.45918,0 -0.8124,0.35322 -0.8124,0.8124 v 5.65151 h -6.41093 v -5.65151 c 0,-0.45918 -0.35322,-0.8124 -0.8124,-0.8124 h -4.8391 c -0.4592,0 -0.81242,0.35322 -0.81242,0.8124 v 31.48949 h -6.4639 v -5.6515 c 0,-0.45919 -0.35323,-0.8124 -0.81241,-0.8124 h -4.83909 c -0.45918,0 -0.81241,0.35321 -0.81241,0.8124 v 38.7658 h 32.3019 v -16.95452 c 0,-12.82186 19.37406,-12.82186 19.37406,0 v 16.95452 h 32.30189 v -38.7658 c 0.0177,-0.45919 -0.33555,-0.8124 -0.79474,-0.8124 z m -50.88121,-0.79475 c 0,0.45919 -0.35322,0.8124 -0.81242,0.8124 h -4.8391 c -0.45918,0 -0.8124,-0.35321 -0.8124,-0.8124 v -11.303 c 0,-0.4592 0.35322,-0.81242 0.8124,-0.81242 h 4.8391 c 0.4592,0 0.81242,0.35322 0.81242,0.81242 v 11.303 z m 25.85563,0 c 0,0.45919 -0.35322,0.8124 -0.8124,0.8124 h -4.8391 c -0.45918,0 -0.8124,-0.35321 -0.8124,-0.8124 v -11.303 c 0,-0.4592 0.35322,-0.81242 0.8124,-0.81242 h 4.8391 c 0.45918,0 0.8124,0.35322 0.8124,0.81242 v 11.303 z"
       inkscape:connector-curvature="0"
       style="fill:#ffffff"
       inkscape:export-filename="/home/rouben/Desktop/rect2985.png"
       inkscape:export-xdpi="1041.2"
       inkscape:export-ydpi="1041.2" />
  </g>
</svg>
